M48
;Layer_Color=9474304
;FILE_FORMAT=2:4
INCH,TZ
;TYPE=PLATED
T01F00S00C0.0118
T02F00S00C0.0236
T03F00S00C0.0394
;TYPE=NON_PLATED
T04F00S00C0.0866
%
T01
X-20136Y-14291
X-20000Y-10157
X-17262Y-12441
X-16464Y-12480
X-16395Y-13110
X-13482Y-13189
X-11789Y-12323
X-12537Y-15984
X-13206Y-16024
X-15214Y-15079
X-17537Y-16496
X-10372Y-16732
X-9269Y-14528
X-8167Y-13228
Y-11220
X-8246Y-10197
X-6710Y-9951
X-5765Y-15984
X-5726Y-16339
X-6592Y-9449
X-7025Y-9044
X-5057Y-9094
X-6356Y-7087
X-8758Y-5236
X-11435Y-4488
X-15372Y-4882
X-15175Y-5945
X-18639Y-7047
X-10529Y-9449
T02
X-19173Y-14098
Y-13598
Y-13098
X-18673
Y-13598
Y-14098
Y-12598
Y-12098
Y-11598
X-19173
Y-12098
Y-12598
Y-11098
X-18673
X-18029Y-15157
X-17537
X-14063Y-16811
X-13571
X-13078
X-12586Y-16811
X-8275Y-16811
X-7783
X-7291
X-6799Y-16811
X-6370Y-14098
Y-13598
Y-13098
X-5870
Y-13598
Y-14098
Y-12598
Y-12098
Y-11598
X-6370
Y-12098
Y-12598
Y-11098
X-5870
T03
X-15210Y-18425
X-14210
X-13210
X-12210
X-11210
X-10210
X-9210
X-8210
T04
X-18706Y-17164
X-6297Y-8031
M30
