G04*
G04 #@! TF.GenerationSoftware,Altium Limited,Altium Designer,24.5.2 (23)*
G04*
G04 Layer_Physical_Order=1*
G04 Layer_Color=255*
%FSLAX25Y25*%
%MOIN*%
G70*
G04*
G04 #@! TF.SameCoordinates,7B9D950A-14CE-42BF-A02F-5B63482B5899*
G04*
G04*
G04 #@! TF.FilePolarity,Positive*
G04*
G01*
G75*
%ADD14C,0.01000*%
G04:AMPARAMS|DCode=15|XSize=31.5mil|YSize=31.5mil|CornerRadius=3.94mil|HoleSize=0mil|Usage=FLASHONLY|Rotation=200.000|XOffset=0mil|YOffset=0mil|HoleType=Round|Shape=RoundedRectangle|*
%AMROUNDEDRECTD15*
21,1,0.03150,0.02362,0,0,200.0*
21,1,0.02362,0.03150,0,0,200.0*
1,1,0.00787,-0.01514,0.00706*
1,1,0.00787,0.00706,0.01514*
1,1,0.00787,0.01514,-0.00706*
1,1,0.00787,-0.00706,-0.01514*
%
%ADD15ROUNDEDRECTD15*%
%ADD16R,0.03150X0.02559*%
%ADD17R,0.02559X0.03150*%
%ADD18R,0.02449X0.09359*%
G04:AMPARAMS|DCode=19|XSize=93.59mil|YSize=24.49mil|CornerRadius=12.25mil|HoleSize=0mil|Usage=FLASHONLY|Rotation=270.000|XOffset=0mil|YOffset=0mil|HoleType=Round|Shape=RoundedRectangle|*
%AMROUNDEDRECTD19*
21,1,0.09359,0.00000,0,0,270.0*
21,1,0.06909,0.02449,0,0,270.0*
1,1,0.02449,0.00000,-0.03455*
1,1,0.02449,0.00000,0.03455*
1,1,0.02449,0.00000,0.03455*
1,1,0.02449,0.00000,-0.03455*
%
%ADD19ROUNDEDRECTD19*%
%ADD20R,0.05000X0.07000*%
%ADD21R,0.01575X0.07480*%
%ADD22R,0.10433X0.06890*%
%ADD23R,0.03150X0.03150*%
%ADD24R,0.02480X0.03268*%
%ADD25O,0.06693X0.01378*%
G04:AMPARAMS|DCode=26|XSize=97.4mil|YSize=24.49mil|CornerRadius=12.25mil|HoleSize=0mil|Usage=FLASHONLY|Rotation=180.000|XOffset=0mil|YOffset=0mil|HoleType=Round|Shape=RoundedRectangle|*
%AMROUNDEDRECTD26*
21,1,0.09740,0.00000,0,0,180.0*
21,1,0.07291,0.02449,0,0,180.0*
1,1,0.02449,-0.03646,0.00000*
1,1,0.02449,0.03646,0.00000*
1,1,0.02449,0.03646,0.00000*
1,1,0.02449,-0.03646,0.00000*
%
%ADD26ROUNDEDRECTD26*%
%ADD27R,0.09740X0.02449*%
G04:AMPARAMS|DCode=28|XSize=23.62mil|YSize=39.37mil|CornerRadius=2.01mil|HoleSize=0mil|Usage=FLASHONLY|Rotation=0.000|XOffset=0mil|YOffset=0mil|HoleType=Round|Shape=RoundedRectangle|*
%AMROUNDEDRECTD28*
21,1,0.02362,0.03535,0,0,0.0*
21,1,0.01961,0.03937,0,0,0.0*
1,1,0.00402,0.00980,-0.01768*
1,1,0.00402,-0.00980,-0.01768*
1,1,0.00402,-0.00980,0.01768*
1,1,0.00402,0.00980,0.01768*
%
%ADD28ROUNDEDRECTD28*%
%ADD29R,0.01181X0.04724*%
%ADD30R,0.04724X0.01181*%
%ADD40C,0.03937*%
%AMCUSTOMSHAPE44*
4,1,5,0.00000,-0.02165,0.01772,-0.03347,0.01772,0.01772,-0.01772,0.01772,-0.01772,-0.03347,0.00000,-0.02165,0.0*%
%ADD44CUSTOMSHAPE44*%

%AMCUSTOMSHAPE45*
4,1,5,0.00000,0.02953,-0.01772,0.01772,-0.01772,-0.01772,0.01772,-0.01772,0.01772,0.01772,0.00000,0.02953,0.0*%
%ADD45CUSTOMSHAPE45*%

%ADD46C,0.06000*%
%ADD47C,0.03150*%
%ADD48C,0.06693*%
%ADD49C,0.02362*%
D14*
X-125871Y-112800D02*
Y-109343D01*
Y-112800D02*
X-125285Y-113386D01*
X-122611D01*
X-122025Y-112800D02*
Y-109252D01*
X-122611Y-113386D02*
X-122025Y-112800D01*
X-121269Y-102756D02*
X-115529D01*
X-123978Y-109236D02*
Y-105465D01*
X-125962Y-109252D02*
Y-104921D01*
X-121435Y-100394D01*
Y-98091D01*
X-123978Y-105465D02*
X-121269Y-102756D01*
X-125962Y-109252D02*
X-125871Y-109343D01*
X-123993Y-109252D02*
X-123978Y-109236D01*
X-115529Y-102756D02*
X-114348Y-101575D01*
Y-98091D01*
X-151356Y-133326D02*
X-150770Y-132740D01*
X-151356Y-140157D02*
Y-133326D01*
X-150770Y-132740D02*
X-148292D01*
X-147812Y-135433D02*
X-145253Y-132874D01*
X-141710D01*
X-147812Y-166535D02*
Y-135433D01*
X-160804Y-135433D02*
X-156324Y-130953D01*
X-147017Y-128937D02*
X-141710D01*
X-148292Y-132740D02*
X-146548Y-130996D01*
X-141800D01*
X-149032Y-130953D02*
X-147017Y-128937D01*
X-156324Y-130953D02*
X-149032D01*
X-159514Y-128386D02*
X-159449D01*
X-141726Y-126984D02*
X-141710Y-126969D01*
X-148993Y-128347D02*
X-147706Y-127059D01*
X-152143Y-128386D02*
X-148993D01*
X-152143D02*
Y-127953D01*
X-159514Y-128386D02*
X-152362D01*
X-147706Y-127059D02*
X-144163D01*
X-152362Y-128386D02*
X-152143D01*
X-152362Y-121654D02*
X-148206D01*
X-147025Y-122835D02*
X-146828Y-123031D01*
X-148206Y-121654D02*
X-147025Y-122835D01*
X-147025Y-122835D02*
Y-122835D01*
Y-124414D02*
Y-122835D01*
X-146439Y-125000D02*
X-141710D01*
X-147025Y-124414D02*
X-146439Y-125000D01*
X-159449Y-121988D02*
X-159114Y-121654D01*
X-152696D02*
X-152362Y-121988D01*
X-159114Y-121654D02*
X-152696D01*
X-161023Y-121988D02*
X-159449D01*
X-146828Y-123031D02*
X-141710D01*
X-164741Y-125197D02*
X-164374Y-124830D01*
Y-123255D01*
X-163167Y-122047D01*
X-161083D01*
X-161023Y-121988D01*
X-163954Y-131102D02*
X-160879D01*
X-160293Y-130517D02*
Y-129165D01*
X-160879Y-131102D02*
X-160293Y-130517D01*
Y-129165D02*
X-159514Y-128386D01*
X-68946Y-71260D02*
X-68572Y-70886D01*
X-114348Y-49075D02*
X-114053Y-48780D01*
X-136002D02*
X-121435D01*
X-55652Y-103208D02*
X-55159Y-104561D01*
X-55113Y-104688D01*
X-153718Y-48819D02*
X-142295D01*
X-194289Y-82214D02*
X-179289D01*
X-156474Y-154330D02*
X-156080D01*
X-156868D02*
X-156474D01*
X-157655Y-153543D02*
X-156868Y-154330D01*
X-144163Y-127059D02*
X-144072Y-126969D01*
X-141710D01*
X-200393Y-114742D02*
X-194151Y-120984D01*
X-200393Y-114742D02*
Y-111850D01*
X-194151Y-120984D02*
X-191730D01*
X-200461Y-111783D02*
X-200393Y-111850D01*
X-200000Y-105847D02*
Y-101575D01*
X-172221Y-118445D02*
X-171540Y-117764D01*
X-170481D02*
X-169753Y-117035D01*
X-172615Y-119291D02*
X-172221Y-118898D01*
X-172615Y-124409D02*
Y-119291D01*
X-172221Y-118898D02*
Y-118445D01*
X-171540Y-117764D02*
X-170481D01*
X-169753Y-117035D02*
Y-110333D01*
X-172615Y-118543D02*
X-172221Y-118937D01*
X-169895Y-110190D02*
X-169753Y-110333D01*
X-169895Y-110190D02*
Y-107637D01*
X-171233Y-106299D02*
X-169895Y-107637D01*
X-167891Y-161752D02*
Y-161425D01*
Y-168701D02*
Y-162264D01*
Y-161425D02*
Y-89370D01*
X-154938Y-155866D02*
X-151356D01*
X-156474Y-154330D02*
X-154938Y-155866D01*
X-148600Y-167323D02*
X-147812Y-166535D01*
X-151355Y-166870D02*
X-150902Y-167323D01*
X-148600D01*
X-147812D02*
Y-166535D01*
Y-167323D02*
X-142682D01*
X-142456Y-167548D01*
X-141189D02*
X-140627Y-168110D01*
X-142456Y-167548D02*
X-141189D01*
X-151355Y-177165D02*
Y-173267D01*
X-152104Y-177913D02*
X-151355Y-177165D01*
X-152104Y-184252D02*
Y-177913D01*
X-51962Y-159843D02*
X-48812Y-156693D01*
X-57655Y-159843D02*
X-51962D01*
X-188703Y-104905D02*
X-182505D01*
X-189289Y-104320D02*
Y-98888D01*
Y-104320D02*
X-188703Y-104905D01*
X-172615Y-112145D02*
Y-109843D01*
Y-112933D02*
Y-112145D01*
X-56717Y-102142D02*
X-55652Y-103208D01*
X-56717Y-102142D02*
Y-101050D01*
X-57256Y-99570D02*
X-56717Y-101050D01*
X-48285Y-103879D02*
X-47419Y-104745D01*
Y-106299D02*
Y-104745D01*
X-48824Y-102399D02*
X-48285Y-103879D01*
X-53324Y-112205D02*
X-47419Y-106299D01*
X-50962Y-114961D02*
X-44663Y-108661D01*
Y-100394D01*
X-48145Y-96911D02*
X-44663Y-100394D01*
X-50598Y-96911D02*
X-48145D01*
X-50967Y-97281D02*
X-50598Y-96911D01*
X-178018Y-72385D02*
X-175881D01*
X-175825Y-72441D01*
X-180096Y-70307D02*
X-178018Y-72385D01*
X-114348Y-48780D02*
Y-44882D01*
Y-49075D02*
Y-48780D01*
X-114053D02*
X-114052Y-48779D01*
X-114348Y-48780D02*
X-114053D01*
X-114348D02*
X-114348D01*
X-121435D02*
X-114348D01*
X-57458Y-98425D02*
Y-95473D01*
X-164742Y-83032D02*
X-160056D01*
X-165037D02*
X-164742D01*
X-53324Y-134646D02*
X-50257Y-137713D01*
X-53324Y-134646D02*
Y-112205D01*
X-47025Y-157480D02*
Y-142126D01*
X-57261Y-163386D02*
X-52930D01*
X-47025Y-157480D01*
X-50962Y-134480D02*
Y-114961D01*
X-48470Y-140681D02*
Y-136972D01*
X-50257Y-141421D02*
Y-137713D01*
X-48470Y-140681D02*
X-47025Y-142126D01*
X-50962Y-134480D02*
X-48470Y-136972D01*
X-48812Y-156693D02*
Y-142866D01*
X-50257Y-141421D02*
X-48812Y-142866D01*
X-53324Y-154066D02*
Y-153937D01*
X-58677Y-157374D02*
X-56632D01*
X-53324Y-154066D01*
X-62773Y-158720D02*
Y-158268D01*
X-62320D02*
X-59571D01*
X-58677Y-157374D01*
X-62773Y-158268D02*
Y-155670D01*
X-132458Y-157244D02*
X-132064Y-157638D01*
Y-160236D02*
Y-157638D01*
X-132458Y-157244D02*
Y-155965D01*
X-125372Y-159842D02*
X-125371Y-159843D01*
X-125372Y-159842D02*
Y-155965D01*
X-128775Y-146366D02*
X-127930Y-145521D01*
X-130489Y-146457D02*
X-130399Y-146366D01*
X-128775D01*
X-127930Y-145521D02*
Y-142717D01*
X-130627Y-146457D02*
X-130489D01*
X-132458Y-148288D02*
X-130627Y-146457D01*
X-132458Y-149567D02*
Y-148288D01*
X-125962Y-147697D02*
X-125372Y-148288D01*
X-125962Y-147697D02*
Y-142717D01*
X-125372Y-149567D02*
Y-148288D01*
X-55419Y-93434D02*
Y-91110D01*
X-57458Y-95473D02*
X-55419Y-93434D01*
Y-91110D02*
X-55253Y-90945D01*
X-66560Y-142170D02*
X-64884Y-143846D01*
X-66560Y-142170D02*
Y-109799D01*
X-64635Y-107873D02*
Y-98485D01*
X-70588Y-140670D02*
X-65624Y-145634D01*
X-64687Y-143846D02*
X-57115D01*
X-65624Y-145634D02*
X-65427D01*
X-59084Y-93053D02*
Y-88836D01*
X-65427Y-145634D02*
X-63030Y-148031D01*
X-66081Y-97039D02*
X-64635Y-98485D01*
X-66560Y-109799D02*
X-64635Y-107873D01*
X-70588Y-140670D02*
Y-129134D01*
X-57115Y-143846D02*
X-53324Y-147638D01*
X-63030Y-148031D02*
X-62773D01*
X-75568Y-99508D02*
X-67104D01*
X-134162Y-176311D02*
X-126879D01*
X-122025Y-171457D01*
Y-142717D01*
X-142104Y-184252D02*
X-134162Y-176311D01*
X-113560Y-185827D02*
X-112104Y-184370D01*
X-120056Y-159646D02*
Y-142717D01*
Y-159646D02*
X-112104Y-167598D01*
Y-184370D02*
Y-184252D01*
X-118088Y-158320D02*
X-94663Y-181746D01*
X-118088Y-158320D02*
Y-142717D01*
X-112104Y-184252D02*
Y-167598D01*
X-116119Y-154921D02*
Y-142717D01*
Y-154921D02*
X-103718Y-167323D01*
X-82739Y-183616D02*
Y-180034D01*
Y-183616D02*
X-82104Y-184252D01*
X-94084Y-168689D02*
X-82739Y-180034D01*
X-98824Y-168689D02*
X-94084D01*
X-114151Y-153362D02*
Y-142717D01*
Y-153362D02*
X-98824Y-168689D01*
X-114283Y-48779D02*
X-114052D01*
X-135608Y-167717D02*
Y-167414D01*
X-137682Y-139529D02*
X-115280Y-117126D01*
X-137682Y-165339D02*
Y-139529D01*
X-62773Y-158720D02*
X-62320Y-158268D01*
X-62773Y-164863D02*
Y-159055D01*
X-62773D02*
Y-158720D01*
X-62773Y-155669D02*
X-62773Y-155670D01*
X-62773Y-155669D02*
Y-154390D01*
X-70647Y-160000D02*
Y-154390D01*
X-77832Y-168012D02*
X-77733Y-168110D01*
X-77832Y-168012D02*
Y-165650D01*
X-73403Y-168110D02*
X-72911Y-167618D01*
Y-165650D01*
X-67497Y-168504D02*
Y-167618D01*
X-64742Y-164863D01*
X-62773D01*
X-75568Y-96949D02*
X-75560Y-96957D01*
X-70647Y-147992D02*
Y-144094D01*
Y-148031D02*
Y-147992D01*
X-78521Y-148425D02*
Y-146457D01*
X-78521Y-155669D02*
X-78521Y-155670D01*
Y-164961D02*
Y-155670D01*
X-78521Y-155669D02*
Y-154390D01*
X-82753Y-168110D02*
Y-165059D01*
X-86395Y-161417D02*
Y-154390D01*
Y-161417D02*
X-82753Y-165059D01*
X-86395Y-147992D02*
Y-146456D01*
Y-148425D02*
Y-147992D01*
X-66273Y-85933D02*
X-61988D01*
X-64687Y-143846D02*
X-64687Y-143846D01*
X-75560Y-96957D02*
X-62988D01*
X-69800Y-63779D02*
X-69072Y-64508D01*
X-75687Y-65697D02*
Y-64365D01*
X-76467Y-66476D02*
X-75687Y-65697D01*
Y-64365D02*
X-75102Y-63779D01*
X-76552Y-66476D02*
X-76467D01*
X-75102Y-63779D02*
X-69800D01*
X-76946Y-66476D02*
X-76467D01*
X-69072Y-64508D02*
Y-62532D01*
X-80430Y-66476D02*
X-76946D01*
X-68572Y-70886D02*
X-63580D01*
X-63560Y-70866D01*
X-100174Y-138917D02*
Y-132677D01*
Y-138976D02*
Y-138917D01*
X-151356Y-163543D02*
X-151355Y-163544D01*
Y-166870D02*
Y-163544D01*
X-151356Y-163543D02*
Y-162264D01*
X-155686Y-154330D02*
X-152143Y-150787D01*
X-164407Y-156895D02*
Y-154330D01*
Y-156895D02*
X-163821Y-157480D01*
X-160804D01*
X-159171Y-165886D02*
Y-159114D01*
X-160804Y-157480D02*
X-159171Y-159114D01*
X-157655Y-153543D02*
Y-147638D01*
X-158009Y-154330D02*
X-156868D01*
X-157655Y-147638D02*
X-156080Y-146063D01*
Y-140157D01*
X-137682Y-165339D02*
X-135608Y-167414D01*
X-53974Y-90945D02*
X-50568D01*
X-53974Y-90945D02*
X-53974Y-90945D01*
X-55253Y-90945D02*
X-53974D01*
X-168690Y-160695D02*
X-167950Y-161435D01*
X-194992Y-160695D02*
X-168690D01*
X-196631Y-159055D02*
X-194992Y-160695D01*
X-167950Y-161811D02*
Y-161435D01*
X-196631Y-137008D02*
X-195607Y-135984D01*
X-196631Y-159055D02*
Y-137008D01*
X-175371Y-165329D02*
X-173696Y-167004D01*
X-175371Y-165329D02*
Y-164961D01*
X-173696Y-177073D02*
Y-167004D01*
Y-177073D02*
X-172423Y-178347D01*
X-164348D01*
X-118178Y-115248D02*
X-108336D01*
X-115280Y-117126D02*
X-108245D01*
X-134820Y-131890D02*
X-118178Y-115248D01*
X-61988Y-85933D02*
X-59084Y-88836D01*
X-64884Y-143846D02*
X-64687D01*
X-76552Y-75653D02*
X-66273Y-85933D01*
X-179269Y-118504D02*
X-172654D01*
X-167891Y-89370D02*
X-164801D01*
X-172030D02*
X-167891D01*
X-178127Y-106299D02*
X-171233D01*
X-179289Y-105138D02*
Y-98888D01*
Y-105138D02*
X-178127Y-106299D01*
X-182505Y-104905D02*
X-179324Y-108087D01*
X-174371D01*
X-172615Y-109843D01*
X-172615Y-124409D02*
X-172615Y-124409D01*
X-164742Y-89429D02*
X-157261D01*
X-172615Y-109843D02*
X-172615Y-109843D01*
X-172615Y-109843D02*
Y-109843D01*
X-179702Y-112933D02*
Y-110236D01*
X-183245Y-106693D02*
X-179702Y-110236D01*
Y-112933D02*
X-179702Y-112933D01*
X-194289Y-104331D02*
Y-98888D01*
X-194269Y-105905D02*
Y-104331D01*
Y-105905D02*
X-193482Y-106693D01*
X-183245D01*
X-82852Y-76186D02*
Y-71514D01*
X-89474Y-76772D02*
X-83437D01*
X-82852Y-71514D02*
Y-68898D01*
X-83437Y-76772D02*
X-82852Y-76186D01*
X-157261Y-59449D02*
X-151749D01*
X-128915Y-55177D02*
X-121435D01*
X-120647Y-76772D02*
X-109236D01*
X-136002Y-55177D02*
X-128915D01*
X-171828Y-55118D02*
X-143088D01*
X-143088Y-48780D02*
X-136002D01*
X-164815Y-83105D02*
X-164742Y-83032D01*
X-178961Y-82708D02*
X-178564Y-83105D01*
X-178961Y-82708D02*
Y-81887D01*
X-178564Y-83105D02*
X-164815D01*
X-184289Y-76805D02*
Y-72579D01*
Y-76805D02*
X-184175Y-76919D01*
X-186395Y-70473D02*
X-184289Y-72579D01*
Y-79852D02*
Y-78383D01*
X-183619Y-77713D01*
X-180096Y-70307D02*
Y-62205D01*
X-83883Y-61206D02*
Y-56947D01*
X-90269Y-61791D02*
X-84469D01*
X-83883Y-61206D01*
Y-56947D02*
X-83851Y-56916D01*
X-87576Y-52362D02*
X-83851Y-56087D01*
Y-56916D02*
Y-56087D01*
X-74918Y-59056D02*
X-72549D01*
X-69072Y-62532D01*
X-81316Y-63031D02*
Y-59056D01*
X-89591Y-66514D02*
X-84799D01*
X-81316Y-63031D01*
X-90109Y-67032D02*
X-89591Y-66514D01*
X-83106Y-71514D02*
X-82852Y-71260D01*
X-90663Y-71514D02*
X-83106D01*
X-91197Y-72047D02*
X-90663Y-71514D01*
X-82852Y-68898D02*
X-80430Y-66476D01*
X-128915Y-55177D02*
Y-55118D01*
Y-58169D02*
Y-55177D01*
Y-58169D02*
X-126356Y-60728D01*
Y-64173D02*
Y-60728D01*
X-122222Y-61811D02*
X-113598D01*
X-124584Y-64173D02*
X-122222Y-61811D01*
X-125371Y-72047D02*
X-120647Y-76772D01*
X-126356Y-71063D02*
X-125371Y-72047D01*
X-109907D01*
X-126356Y-71063D02*
Y-64173D01*
X-124584D01*
X-70253Y-90445D02*
X-70147Y-90551D01*
X-62044D02*
X-61651Y-90945D01*
X-70147Y-90551D02*
X-62044D01*
X-117694Y-123031D02*
X-108245D01*
X-117891Y-123228D02*
X-117694Y-123031D01*
X-172615Y-88784D02*
Y-87146D01*
X-160056Y-83032D02*
X-160017Y-83071D01*
X-108336Y-115248D02*
X-108245Y-115157D01*
X-141800Y-125091D02*
X-141710Y-125000D01*
X-100115Y-145295D02*
X-92714D01*
X-92694Y-145276D01*
X-100135D02*
X-100115Y-145295D01*
X-141800Y-130996D02*
X-141710Y-130905D01*
X-160804Y-140157D02*
Y-135433D01*
X-172616Y-65414D02*
X-170194D01*
X-169427Y-66181D01*
Y-72441D02*
Y-66181D01*
X-172616Y-55906D02*
X-171828Y-55118D01*
X-172616Y-59016D02*
Y-55906D01*
X-180096Y-62205D02*
X-176907Y-59016D01*
X-172616D01*
X-164170Y-58938D02*
X-163560Y-59547D01*
X-160017Y-83032D02*
X-157261D01*
X-160214Y-82874D02*
X-160056Y-83032D01*
X-160214Y-82874D02*
Y-66536D01*
X-163560Y-66142D02*
Y-59547D01*
X-163954Y-66536D02*
X-163560Y-66142D01*
X-155698Y-66536D02*
X-144860D01*
X-121435Y-55177D02*
X-114348D01*
X-108805Y-52725D02*
X-105754D01*
X-114348Y-55177D02*
X-111257D01*
X-105754Y-52725D02*
X-105391Y-52362D01*
X-111257Y-55177D02*
X-108805Y-52725D01*
X-93391Y-52362D02*
X-87576D01*
X-100867Y-91732D02*
X-100769Y-91831D01*
X-98009D01*
X-113954Y-91732D02*
X-100867D01*
X-86887Y-89272D02*
X-75568D01*
X-91422Y-84736D02*
X-86887Y-89272D01*
X-121435Y-86221D02*
X-119950Y-84736D01*
X-91422D01*
X-121435Y-91693D02*
Y-86221D01*
X-124785Y-82677D02*
X-89151D01*
X-128521Y-86413D02*
X-124785Y-82677D01*
X-89151D02*
X-85214Y-86614D01*
X-78565Y-86640D02*
X-75640D01*
X-85214Y-86614D02*
X-78591D01*
X-78565Y-86640D01*
X-75640D02*
X-75568Y-86713D01*
X-128521Y-90413D02*
Y-86413D01*
X-128521Y-90414D02*
X-128521Y-90413D01*
X-128521Y-91693D02*
Y-90414D01*
X-105293Y-94488D02*
X-105194Y-94390D01*
X-98009D01*
X-70647Y-163386D02*
Y-160001D01*
X-70647Y-160000D02*
X-70647Y-160001D01*
X-72911Y-165650D02*
X-70647Y-163386D01*
X-78521Y-164961D02*
X-77832Y-165650D01*
X-82458Y-101969D02*
X-82359Y-102067D01*
X-75568D01*
X-81670Y-112205D02*
X-78591D01*
X-78565Y-112231D02*
X-75640D01*
X-78591Y-112205D02*
X-78565Y-112231D01*
X-75640D02*
X-75568Y-112303D01*
X-84426Y-118367D02*
Y-109055D01*
X-82458Y-107087D01*
X-84426Y-118367D02*
X-81671Y-121122D01*
X-75640Y-107113D02*
X-75568Y-107185D01*
X-82458Y-107087D02*
X-78591D01*
X-78565Y-107113D02*
X-75640D01*
X-78591Y-107087D02*
X-78565Y-107113D01*
X-81671Y-122402D02*
Y-121122D01*
X-70588Y-122441D02*
X-70253Y-122107D01*
X-75568Y-109744D02*
X-70839D01*
X-70588Y-129134D02*
Y-122441D01*
X-70839Y-109744D02*
X-70253Y-110330D01*
Y-122107D02*
Y-110330D01*
X-90430Y-109744D02*
X-87182Y-112992D01*
Y-122008D02*
Y-112992D01*
X-98009Y-109744D02*
X-90430D01*
X-93280Y-112303D02*
X-92694Y-112889D01*
X-98009Y-112303D02*
X-93280D01*
X-92694Y-115000D02*
Y-112889D01*
X-94572Y-116839D02*
X-94533D01*
X-92694Y-115000D01*
X-98206Y-120472D02*
X-94572Y-116839D01*
X-98206Y-122382D02*
Y-120472D01*
X-101951Y-114935D02*
X-98081D01*
X-102537Y-115520D02*
X-101951Y-114935D01*
X-102537Y-126772D02*
Y-115520D01*
X-100695Y-128614D02*
X-98371D01*
X-102537Y-126772D02*
X-100695Y-128614D01*
X-98371D02*
X-98206Y-128779D01*
X-98081Y-114935D02*
X-98009Y-114862D01*
X-93935Y-122441D02*
X-93541Y-122047D01*
X-98146Y-122441D02*
X-93935D01*
X-90332Y-134646D02*
Y-123228D01*
Y-134646D02*
X-78521Y-146457D01*
X-91347Y-122213D02*
X-90332Y-123228D01*
X-93541Y-122047D02*
X-93375Y-122213D01*
X-91347D01*
X-98206Y-134646D02*
Y-128779D01*
Y-134646D02*
X-86395Y-146456D01*
X-96631Y-128779D02*
X-96592Y-128741D01*
X-93521D01*
X-98206Y-128779D02*
X-96631D01*
X-81670Y-132283D02*
Y-128800D01*
X-81671Y-128799D02*
X-81670Y-128800D01*
X-87143Y-123622D02*
X-87123Y-123642D01*
Y-128741D02*
Y-123642D01*
X-87143Y-123622D02*
Y-122047D01*
X-83305Y-128741D02*
X-83246Y-128799D01*
X-87123Y-128741D02*
X-83305D01*
X-83246Y-128799D02*
X-81671D01*
X-80096Y-122402D02*
X-80057Y-122441D01*
X-81671Y-122402D02*
X-80096D01*
X-80057Y-122441D02*
X-76985D01*
X-77379Y-128740D02*
X-76985Y-129134D01*
X-81612Y-128740D02*
X-77379D01*
X-74190Y-140551D02*
Y-123027D01*
X-76985Y-122441D02*
X-74776D01*
X-74190Y-123027D01*
Y-140551D02*
X-70647Y-144094D01*
X-76552Y-75653D02*
Y-72874D01*
X-62988Y-96957D02*
X-59084Y-93053D01*
X-75568Y-94390D02*
X-66021D01*
X-65922Y-94488D01*
X-75568Y-94390D02*
Y-91831D01*
X-108245Y-128937D02*
X-103915D01*
X-100174Y-132677D01*
X-127930Y-109252D02*
Y-99961D01*
X-128521Y-99370D02*
X-127930Y-99961D01*
X-128521Y-99370D02*
Y-98091D01*
X-144860Y-73268D02*
Y-66536D01*
X-147812Y-76220D02*
X-144860Y-73268D01*
X-147812Y-77500D02*
Y-76220D01*
X-143088Y-55177D02*
X-136002D01*
X-165135Y-72441D02*
X-163757Y-71063D01*
Y-66634D01*
X-169427Y-72441D02*
X-165135D01*
X-168619Y-79468D02*
X-166612Y-77461D01*
X-163757D01*
X-172615Y-79468D02*
X-168619D01*
X-156277Y-77461D02*
X-153516D01*
X-152930Y-80354D02*
Y-78046D01*
X-153516Y-77461D02*
X-152930Y-78046D01*
Y-80354D02*
X-149387Y-83897D01*
X-147812D01*
Y-88844D02*
Y-83897D01*
X-157261Y-89429D02*
X-148398D01*
X-147812Y-88844D01*
X-172615Y-88784D02*
X-172030Y-89370D01*
X-172615Y-87146D02*
X-172615Y-87146D01*
Y-85866D01*
X-195607Y-135984D02*
X-191730D01*
X-160608Y-167323D02*
X-159171Y-165886D01*
X-160608Y-168898D02*
Y-167323D01*
X-168088Y-168898D02*
X-167891Y-168701D01*
D15*
X-50967Y-97281D02*
D03*
X-57256Y-99570D02*
D03*
X-55507Y-104688D02*
D03*
X-49218Y-102399D02*
D03*
D16*
X-125372Y-155965D02*
D03*
Y-149567D02*
D03*
X-132458Y-155965D02*
D03*
Y-149567D02*
D03*
X-62773Y-147992D02*
D03*
Y-154390D02*
D03*
X-78521Y-147992D02*
D03*
Y-154390D02*
D03*
X-70647Y-147992D02*
D03*
Y-154390D02*
D03*
X-86395Y-147992D02*
D03*
Y-154390D02*
D03*
X-200393Y-111850D02*
D03*
Y-105453D02*
D03*
X-114348Y-91693D02*
D03*
Y-98091D02*
D03*
X-100174Y-138917D02*
D03*
Y-145315D02*
D03*
X-81671Y-128799D02*
D03*
Y-122402D02*
D03*
X-98206Y-122382D02*
D03*
Y-128779D02*
D03*
X-76552Y-72874D02*
D03*
Y-66476D02*
D03*
X-114348Y-55177D02*
D03*
X-69072Y-64508D02*
D03*
X-159449Y-128386D02*
D03*
Y-121988D02*
D03*
X-151355Y-166870D02*
D03*
Y-173267D02*
D03*
X-152362Y-128386D02*
D03*
Y-121988D02*
D03*
X-179308Y-112145D02*
D03*
Y-118543D02*
D03*
X-172615Y-112145D02*
D03*
Y-118543D02*
D03*
X-151356Y-155866D02*
D03*
Y-162264D02*
D03*
X-128521Y-98091D02*
D03*
Y-91693D02*
D03*
X-121435Y-98091D02*
D03*
Y-91693D02*
D03*
X-147812Y-83897D02*
D03*
Y-77500D02*
D03*
X-121435Y-48780D02*
D03*
Y-55177D02*
D03*
X-128915Y-48720D02*
D03*
Y-55118D02*
D03*
X-136002Y-48780D02*
D03*
Y-55177D02*
D03*
X-143088Y-48780D02*
D03*
Y-55177D02*
D03*
X-164742Y-83032D02*
D03*
Y-89429D02*
D03*
X-157261Y-83032D02*
D03*
Y-89429D02*
D03*
X-172616Y-65414D02*
D03*
Y-59016D02*
D03*
X-69072Y-70905D02*
D03*
X-172615Y-79468D02*
D03*
Y-85866D02*
D03*
X-114348Y-48780D02*
D03*
D17*
X-61651Y-90945D02*
D03*
X-55253D02*
D03*
X-87123Y-128741D02*
D03*
X-93521D02*
D03*
X-93541Y-122047D02*
D03*
X-87143D02*
D03*
X-74918Y-59056D02*
D03*
X-164407Y-154330D02*
D03*
X-158009D02*
D03*
X-76985Y-129134D02*
D03*
X-70588D02*
D03*
X-76985Y-122441D02*
D03*
X-70588D02*
D03*
X-81316Y-59056D02*
D03*
X-169427Y-72441D02*
D03*
X-175824D02*
D03*
X-157261Y-59449D02*
D03*
X-163659D02*
D03*
D18*
X-179289Y-79852D02*
D03*
D19*
X-184289D02*
D03*
X-189289D02*
D03*
X-194289D02*
D03*
Y-98888D02*
D03*
X-189289D02*
D03*
X-184289D02*
D03*
X-179289D02*
D03*
D20*
X-93391Y-52362D02*
D03*
X-105391D02*
D03*
D21*
X-151356Y-140157D02*
D03*
X-156080D02*
D03*
X-160804D02*
D03*
D22*
X-126356Y-64173D02*
D03*
X-143285D02*
D03*
D23*
X-164348Y-178347D02*
D03*
X-168088Y-168898D02*
D03*
X-160608D02*
D03*
D24*
X-159171Y-161811D02*
D03*
X-167950D02*
D03*
D25*
X-75568Y-114862D02*
D03*
Y-112303D02*
D03*
Y-109744D02*
D03*
Y-107185D02*
D03*
Y-104626D02*
D03*
Y-102067D02*
D03*
Y-99508D02*
D03*
Y-96949D02*
D03*
Y-94390D02*
D03*
Y-91831D02*
D03*
Y-89272D02*
D03*
Y-86713D02*
D03*
X-98009Y-114862D02*
D03*
Y-112303D02*
D03*
Y-109744D02*
D03*
Y-107185D02*
D03*
Y-104626D02*
D03*
Y-102067D02*
D03*
Y-99508D02*
D03*
Y-96949D02*
D03*
Y-94390D02*
D03*
Y-91831D02*
D03*
Y-89272D02*
D03*
Y-86713D02*
D03*
D26*
X-109293Y-76791D02*
D03*
Y-71791D02*
D03*
Y-66791D02*
D03*
Y-61791D02*
D03*
X-90269D02*
D03*
Y-66791D02*
D03*
Y-71791D02*
D03*
D27*
Y-76791D02*
D03*
D28*
X-156474Y-77362D02*
D03*
X-163954D02*
D03*
Y-66536D02*
D03*
X-160214D02*
D03*
X-156474D02*
D03*
D29*
X-135804Y-109252D02*
D03*
X-133836D02*
D03*
X-131867D02*
D03*
X-129899D02*
D03*
X-127930D02*
D03*
X-125962D02*
D03*
X-123993D02*
D03*
X-122025D02*
D03*
X-120056D02*
D03*
X-118088D02*
D03*
X-116119D02*
D03*
X-114151D02*
D03*
Y-142717D02*
D03*
X-116119D02*
D03*
X-118088D02*
D03*
X-120056D02*
D03*
X-122025D02*
D03*
X-123993D02*
D03*
X-125962D02*
D03*
X-127930D02*
D03*
X-129899D02*
D03*
X-131867D02*
D03*
X-133836D02*
D03*
X-135804D02*
D03*
D30*
X-108245Y-115157D02*
D03*
Y-117126D02*
D03*
Y-119095D02*
D03*
Y-121063D02*
D03*
Y-123031D02*
D03*
Y-125000D02*
D03*
Y-126969D02*
D03*
Y-128937D02*
D03*
Y-130905D02*
D03*
Y-132874D02*
D03*
Y-134843D02*
D03*
Y-136811D02*
D03*
X-141710D02*
D03*
Y-134843D02*
D03*
Y-132874D02*
D03*
Y-130905D02*
D03*
Y-128937D02*
D03*
Y-126969D02*
D03*
Y-125000D02*
D03*
Y-123031D02*
D03*
Y-121063D02*
D03*
Y-119095D02*
D03*
Y-117126D02*
D03*
Y-115157D02*
D03*
D40*
X-125864Y-168110D02*
D03*
X-140627Y-168110D02*
D03*
X-135706D02*
D03*
X-130785D02*
D03*
X-72911D02*
D03*
X-77832D02*
D03*
X-82753D02*
D03*
X-67989Y-168110D02*
D03*
X-180293Y-151575D02*
D03*
X-175371D02*
D03*
D44*
X-53324Y-147638D02*
D03*
D45*
Y-153937D02*
D03*
D46*
X-187062Y-171640D02*
D03*
X-62970Y-80315D02*
D03*
D47*
X-186730Y-115984D02*
D03*
X-191730D02*
D03*
X-186730Y-120984D02*
D03*
X-191730D02*
D03*
Y-110984D02*
D03*
X-186730D02*
D03*
Y-130984D02*
D03*
X-191730D02*
D03*
X-186730Y-135984D02*
D03*
X-191730D02*
D03*
X-186730Y-140984D02*
D03*
X-191730D02*
D03*
Y-125984D02*
D03*
X-186730D02*
D03*
X-58698Y-115984D02*
D03*
X-63698D02*
D03*
X-58698Y-120984D02*
D03*
X-63698D02*
D03*
Y-110984D02*
D03*
X-58698D02*
D03*
Y-130984D02*
D03*
X-63698D02*
D03*
X-58698Y-135984D02*
D03*
X-63698D02*
D03*
X-58698Y-140984D02*
D03*
X-63698D02*
D03*
Y-125984D02*
D03*
X-58698D02*
D03*
D48*
X-82104Y-184252D02*
D03*
X-92104D02*
D03*
X-102104D02*
D03*
X-112104D02*
D03*
X-122104D02*
D03*
X-132104D02*
D03*
X-142104D02*
D03*
X-152104D02*
D03*
D49*
X-114348Y-44882D02*
D03*
X-57655Y-159843D02*
D03*
X-57261Y-163386D02*
D03*
X-132064Y-160236D02*
D03*
X-125371Y-159843D02*
D03*
X-67104Y-99508D02*
D03*
X-103718Y-167323D02*
D03*
X-63560Y-70866D02*
D03*
X-152143Y-150787D02*
D03*
X-50568Y-90945D02*
D03*
X-175371Y-164961D02*
D03*
X-200000Y-101575D02*
D03*
X-164635Y-124803D02*
D03*
X-172615Y-124409D02*
D03*
X-163954Y-131102D02*
D03*
X-151749Y-59449D02*
D03*
X-153718Y-48819D02*
D03*
X-186395Y-70473D02*
D03*
X-70253Y-90445D02*
D03*
X-117891Y-123228D02*
D03*
X-134820Y-131890D02*
D03*
X-201356Y-142913D02*
D03*
X-92694Y-145276D02*
D03*
X-87576Y-52362D02*
D03*
X-105293Y-94488D02*
D03*
X-82458Y-101969D02*
D03*
X-81670Y-112205D02*
D03*
Y-132283D02*
D03*
X-65922Y-94488D02*
D03*
M02*
