G04*
G04 #@! TF.GenerationSoftware,Altium Limited,Altium Designer,24.5.2 (23)*
G04*
G04 Layer_Color=8421504*
%FSLAX25Y25*%
%MOIN*%
G70*
G04*
G04 #@! TF.SameCoordinates,7B9D950A-14CE-42BF-A02F-5B63482B5899*
G04*
G04*
G04 #@! TF.FilePolarity,Positive*
G04*
G01*
G75*
G04:AMPARAMS|DCode=15|XSize=31.5mil|YSize=31.5mil|CornerRadius=3.94mil|HoleSize=0mil|Usage=FLASHONLY|Rotation=200.000|XOffset=0mil|YOffset=0mil|HoleType=Round|Shape=RoundedRectangle|*
%AMROUNDEDRECTD15*
21,1,0.03150,0.02362,0,0,200.0*
21,1,0.02362,0.03150,0,0,200.0*
1,1,0.00787,-0.01514,0.00706*
1,1,0.00787,0.00706,0.01514*
1,1,0.00787,0.01514,-0.00706*
1,1,0.00787,-0.00706,-0.01514*
%
%ADD15ROUNDEDRECTD15*%
%ADD16R,0.03150X0.02559*%
%ADD17R,0.02559X0.03150*%
%ADD18R,0.02449X0.09359*%
G04:AMPARAMS|DCode=19|XSize=93.59mil|YSize=24.49mil|CornerRadius=12.25mil|HoleSize=0mil|Usage=FLASHONLY|Rotation=270.000|XOffset=0mil|YOffset=0mil|HoleType=Round|Shape=RoundedRectangle|*
%AMROUNDEDRECTD19*
21,1,0.09359,0.00000,0,0,270.0*
21,1,0.06909,0.02449,0,0,270.0*
1,1,0.02449,0.00000,-0.03455*
1,1,0.02449,0.00000,0.03455*
1,1,0.02449,0.00000,0.03455*
1,1,0.02449,0.00000,-0.03455*
%
%ADD19ROUNDEDRECTD19*%
%ADD20R,0.05000X0.07000*%
%ADD21R,0.01575X0.07480*%
%ADD22R,0.10433X0.06890*%
%ADD23R,0.03150X0.03150*%
%ADD24R,0.02480X0.03268*%
%ADD25O,0.06693X0.01378*%
G04:AMPARAMS|DCode=26|XSize=97.4mil|YSize=24.49mil|CornerRadius=12.25mil|HoleSize=0mil|Usage=FLASHONLY|Rotation=180.000|XOffset=0mil|YOffset=0mil|HoleType=Round|Shape=RoundedRectangle|*
%AMROUNDEDRECTD26*
21,1,0.09740,0.00000,0,0,180.0*
21,1,0.07291,0.02449,0,0,180.0*
1,1,0.02449,-0.03646,0.00000*
1,1,0.02449,0.03646,0.00000*
1,1,0.02449,0.03646,0.00000*
1,1,0.02449,-0.03646,0.00000*
%
%ADD26ROUNDEDRECTD26*%
%ADD27R,0.09740X0.02449*%
G04:AMPARAMS|DCode=28|XSize=23.62mil|YSize=39.37mil|CornerRadius=2.01mil|HoleSize=0mil|Usage=FLASHONLY|Rotation=0.000|XOffset=0mil|YOffset=0mil|HoleType=Round|Shape=RoundedRectangle|*
%AMROUNDEDRECTD28*
21,1,0.02362,0.03535,0,0,0.0*
21,1,0.01961,0.03937,0,0,0.0*
1,1,0.00402,0.00980,-0.01768*
1,1,0.00402,-0.00980,-0.01768*
1,1,0.00402,-0.00980,0.01768*
1,1,0.00402,0.00980,0.01768*
%
%ADD28ROUNDEDRECTD28*%
%ADD29R,0.01181X0.04724*%
%ADD30R,0.04724X0.01181*%
G36*
X-51552Y-150984D02*
X-53324Y-149803D01*
X-55096Y-150984D01*
Y-145866D01*
X-51552D01*
Y-150984D01*
D02*
G37*
G36*
Y-152165D02*
Y-155709D01*
X-55096D01*
Y-152165D01*
X-53324Y-150984D01*
X-51552Y-152165D01*
D02*
G37*
D15*
X-50967Y-97281D02*
D03*
X-57256Y-99570D02*
D03*
X-55507Y-104688D02*
D03*
X-49218Y-102399D02*
D03*
D16*
X-125372Y-155965D02*
D03*
Y-149567D02*
D03*
X-132458Y-155965D02*
D03*
Y-149567D02*
D03*
X-62773Y-147992D02*
D03*
Y-154390D02*
D03*
X-78521Y-147992D02*
D03*
Y-154390D02*
D03*
X-70647Y-147992D02*
D03*
Y-154390D02*
D03*
X-86395Y-147992D02*
D03*
Y-154390D02*
D03*
X-200393Y-111850D02*
D03*
Y-105453D02*
D03*
X-114348Y-91693D02*
D03*
Y-98091D02*
D03*
X-100174Y-138917D02*
D03*
Y-145315D02*
D03*
X-81671Y-128799D02*
D03*
Y-122402D02*
D03*
X-98206Y-122382D02*
D03*
Y-128779D02*
D03*
X-76552Y-72874D02*
D03*
Y-66476D02*
D03*
X-114348Y-55177D02*
D03*
X-69072Y-64508D02*
D03*
X-159449Y-128386D02*
D03*
Y-121988D02*
D03*
X-151355Y-166870D02*
D03*
Y-173267D02*
D03*
X-152362Y-128386D02*
D03*
Y-121988D02*
D03*
X-179308Y-112145D02*
D03*
Y-118543D02*
D03*
X-172615Y-112145D02*
D03*
Y-118543D02*
D03*
X-151356Y-155866D02*
D03*
Y-162264D02*
D03*
X-128521Y-98091D02*
D03*
Y-91693D02*
D03*
X-121435Y-98091D02*
D03*
Y-91693D02*
D03*
X-147812Y-83897D02*
D03*
Y-77500D02*
D03*
X-121435Y-48780D02*
D03*
Y-55177D02*
D03*
X-128915Y-48720D02*
D03*
Y-55118D02*
D03*
X-136002Y-48780D02*
D03*
Y-55177D02*
D03*
X-143088Y-48780D02*
D03*
Y-55177D02*
D03*
X-164742Y-83032D02*
D03*
Y-89429D02*
D03*
X-157261Y-83032D02*
D03*
Y-89429D02*
D03*
X-172616Y-65414D02*
D03*
Y-59016D02*
D03*
X-69072Y-70905D02*
D03*
X-172615Y-79468D02*
D03*
Y-85866D02*
D03*
X-114348Y-48780D02*
D03*
D17*
X-61651Y-90945D02*
D03*
X-55253D02*
D03*
X-87123Y-128741D02*
D03*
X-93521D02*
D03*
X-93541Y-122047D02*
D03*
X-87143D02*
D03*
X-74918Y-59056D02*
D03*
X-164407Y-154330D02*
D03*
X-158009D02*
D03*
X-76985Y-129134D02*
D03*
X-70588D02*
D03*
X-76985Y-122441D02*
D03*
X-70588D02*
D03*
X-81316Y-59056D02*
D03*
X-169427Y-72441D02*
D03*
X-175824D02*
D03*
X-157261Y-59449D02*
D03*
X-163659D02*
D03*
D18*
X-179289Y-79852D02*
D03*
D19*
X-184289D02*
D03*
X-189289D02*
D03*
X-194289D02*
D03*
Y-98888D02*
D03*
X-189289D02*
D03*
X-184289D02*
D03*
X-179289D02*
D03*
D20*
X-93391Y-52362D02*
D03*
X-105391D02*
D03*
D21*
X-151356Y-140157D02*
D03*
X-156080D02*
D03*
X-160804D02*
D03*
D22*
X-126356Y-64173D02*
D03*
X-143285D02*
D03*
D23*
X-164348Y-178347D02*
D03*
X-168088Y-168898D02*
D03*
X-160608D02*
D03*
D24*
X-159171Y-161811D02*
D03*
X-167950D02*
D03*
D25*
X-75568Y-114862D02*
D03*
Y-112303D02*
D03*
Y-109744D02*
D03*
Y-107185D02*
D03*
Y-104626D02*
D03*
Y-102067D02*
D03*
Y-99508D02*
D03*
Y-96949D02*
D03*
Y-94390D02*
D03*
Y-91831D02*
D03*
Y-89272D02*
D03*
Y-86713D02*
D03*
X-98009Y-114862D02*
D03*
Y-112303D02*
D03*
Y-109744D02*
D03*
Y-107185D02*
D03*
Y-104626D02*
D03*
Y-102067D02*
D03*
Y-99508D02*
D03*
Y-96949D02*
D03*
Y-94390D02*
D03*
Y-91831D02*
D03*
Y-89272D02*
D03*
Y-86713D02*
D03*
D26*
X-109293Y-76791D02*
D03*
Y-71791D02*
D03*
Y-66791D02*
D03*
Y-61791D02*
D03*
X-90269D02*
D03*
Y-66791D02*
D03*
Y-71791D02*
D03*
D27*
Y-76791D02*
D03*
D28*
X-156474Y-77362D02*
D03*
X-163954D02*
D03*
Y-66536D02*
D03*
X-160214D02*
D03*
X-156474D02*
D03*
D29*
X-135804Y-109252D02*
D03*
X-133836D02*
D03*
X-131867D02*
D03*
X-129899D02*
D03*
X-127930D02*
D03*
X-125962D02*
D03*
X-123993D02*
D03*
X-122025D02*
D03*
X-120056D02*
D03*
X-118088D02*
D03*
X-116119D02*
D03*
X-114151D02*
D03*
Y-142717D02*
D03*
X-116119D02*
D03*
X-118088D02*
D03*
X-120056D02*
D03*
X-122025D02*
D03*
X-123993D02*
D03*
X-125962D02*
D03*
X-127930D02*
D03*
X-129899D02*
D03*
X-131867D02*
D03*
X-133836D02*
D03*
X-135804D02*
D03*
D30*
X-108245Y-115157D02*
D03*
Y-117126D02*
D03*
Y-119095D02*
D03*
Y-121063D02*
D03*
Y-123031D02*
D03*
Y-125000D02*
D03*
Y-126969D02*
D03*
Y-128937D02*
D03*
Y-130905D02*
D03*
Y-132874D02*
D03*
Y-134843D02*
D03*
Y-136811D02*
D03*
X-141710D02*
D03*
Y-134843D02*
D03*
Y-132874D02*
D03*
Y-130905D02*
D03*
Y-128937D02*
D03*
Y-126969D02*
D03*
Y-125000D02*
D03*
Y-123031D02*
D03*
Y-121063D02*
D03*
Y-119095D02*
D03*
Y-117126D02*
D03*
Y-115157D02*
D03*
M02*
